<?xml version="1.0" encoding="UTF-8" standalone="no"?><!DOCTYPE svg PUBLIC "-//W3C//DTD SVG 1.1//EN" "http://www.w3.org/Graphics/SVG/1.1/DTD/svg11.dtd"><svg width="100%" height="100%" viewBox="0 0 43 43" version="1.1" xmlns="http://www.w3.org/2000/svg" xmlns:xlink="http://www.w3.org/1999/xlink" xml:space="preserve" xmlns:serif="http://www.serif.com/" style="fill-rule:evenodd;clip-rule:evenodd;stroke-linejoin:round;stroke-miterlimit:2;"><path d="M42.755,42.755l-42.755,-0l0,-42.755l42.755,0l-0,42.755Zm-4.014,-38.741l-34.727,0c0,0 0,34.727 0,34.727l34.727,-0l-0,-34.727Z" style="fill:#fff;"/><g><path d="M13.112,13.436l3.009,-0l5.995,15.586l-3.083,0l-1.22,-3.21l-6.36,-0l-1.268,3.21l-3.083,0l6.01,-15.586Zm1.524,4.132l-2.092,5.351l4.17,0l-2.078,-5.351Z" style="fill:#fff;fill-rule:nonzero;"/><path d="M35.642,24.095l-9.292,0c0.134,0.82 0.492,1.471 1.075,1.955c0.583,0.484 1.326,0.726 2.231,0.726c1.08,0 2.009,-0.378 2.786,-1.134l2.437,1.145c-0.607,0.861 -1.335,1.499 -2.182,1.912c-0.848,0.413 -1.855,0.62 -3.02,0.62c-1.809,0 -3.282,-0.57 -4.419,-1.711c-1.137,-1.141 -1.706,-2.57 -1.706,-4.286c0,-1.759 0.567,-3.22 1.701,-4.382c1.134,-1.162 2.555,-1.743 4.265,-1.743c1.815,0 3.292,0.581 4.429,1.743c1.137,1.162 1.706,2.697 1.706,4.604l-0.011,0.551Zm-2.892,-2.278c-0.191,-0.643 -0.568,-1.166 -1.131,-1.568c-0.562,-0.403 -1.215,-0.604 -1.958,-0.604c-0.807,-0 -1.514,0.226 -2.123,0.678c-0.382,0.283 -0.736,0.781 -1.061,1.494l6.273,0Z" style="fill:#fff;fill-rule:nonzero;"/></g></svg>