<?xml version="1.0" encoding="UTF-8" standalone="no"?><!DOCTYPE svg PUBLIC "-//W3C//DTD SVG 1.1//EN" "http://www.w3.org/Graphics/SVG/1.1/DTD/svg11.dtd"><svg width="100%" height="100%" viewBox="0 0 43 43" version="1.1" xmlns="http://www.w3.org/2000/svg" xmlns:xlink="http://www.w3.org/1999/xlink" xml:space="preserve" xmlns:serif="http://www.serif.com/" style="fill-rule:evenodd;clip-rule:evenodd;stroke-linejoin:round;stroke-miterlimit:2;"><path d="M19.406,42.755l-19.406,-0l0,-42.755l42.755,0l-0,42.755l-23.298,-0c-0.017,-0 -0.034,-0 -0.051,-0Zm19.335,-16.185l-0,-22.556l-8.133,0l-10.038,16.456l3.774,6.1l14.397,0Zm-18.078,12.171l18.078,-0l-0,-8.157l-22.203,0l4.125,8.157Zm-2.436,-14.43l-1.378,2.259l2.775,0l-1.397,-2.259Zm-14.213,0.976l0,13.454l12.151,-0l-4.672,-9.237c-0.008,-0.015 -0.015,-0.031 -0.023,-0.046l-0.492,-0.972l5.511,-9.034c0.009,-0.015 0.018,-0.029 0.027,-0.044l9.39,-15.394l-8.916,0l-12.976,21.273Z" style="fill:#fff;"/></svg>