<?xml version="1.0" encoding="UTF-8" standalone="no"?><!DOCTYPE svg PUBLIC "-//W3C//DTD SVG 1.1//EN" "http://www.w3.org/Graphics/SVG/1.1/DTD/svg11.dtd"><svg width="100%" height="100%" viewBox="0 0 43 43" version="1.1" xmlns="http://www.w3.org/2000/svg" xmlns:xlink="http://www.w3.org/1999/xlink" xml:space="preserve" xmlns:serif="http://www.serif.com/" style="fill-rule:evenodd;clip-rule:evenodd;stroke-linejoin:round;stroke-miterlimit:2;"><path d="M42.755,42.755l-42.755,-0l-0,-42.755l42.755,0l-0,42.755Zm-4.014,-38.741l-34.727,0c0,0 0,34.727 0,34.727l34.727,-0l-0,-34.727Z" style="fill:#fff;"/><g><path d="M17.404,13.928l3.009,0l5.995,15.587l-3.084,0l-1.219,-3.211l-6.36,0l-1.268,3.211l-3.084,0l6.011,-15.587Zm1.523,4.133l-2.091,5.351l4.17,-0l-2.079,-5.351Z" style="fill:#fff;fill-rule:nonzero;"/><path d="M29.512,13.239c0.508,0 0.943,0.184 1.305,0.551c0.363,0.368 0.544,0.813 0.544,1.336c0,0.515 -0.179,0.955 -0.538,1.319c-0.36,0.364 -0.789,0.546 -1.289,0.546c-0.515,-0 -0.953,-0.186 -1.316,-0.557c-0.363,-0.371 -0.544,-0.821 -0.544,-1.351c0,-0.508 0.18,-0.943 0.539,-1.303c0.359,-0.36 0.792,-0.541 1.299,-0.541Zm-1.446,4.748l2.893,-0l-0,11.528l-2.893,0l0,-11.528Z" style="fill:#fff;fill-rule:nonzero;"/></g></svg>