<?xml version="1.0" encoding="UTF-8" standalone="no"?><!DOCTYPE svg PUBLIC "-//W3C//DTD SVG 1.1//EN" "http://www.w3.org/Graphics/SVG/1.1/DTD/svg11.dtd"><svg width="100%" height="100%" viewBox="0 0 41 37" version="1.1" xmlns="http://www.w3.org/2000/svg" xmlns:xlink="http://www.w3.org/1999/xlink" xml:space="preserve" xmlns:serif="http://www.serif.com/" style="fill-rule:evenodd;clip-rule:evenodd;stroke-linejoin:round;stroke-miterlimit:2;"><path d="M11.014,22.591l-7.784,5.982c-0.879,0.675 -2.14,0.509 -2.815,-0.369c-0.675,-0.878 -0.509,-2.139 0.369,-2.814l14.283,-10.976l-11.457,0c-1.107,0 -2.007,-0.899 -2.007,-2.007c0,-1.108 0.9,-2.007 2.007,-2.007l19.56,0l-10.453,-6.704c-0.932,-0.598 -1.204,-1.84 -0.606,-2.773c0.598,-0.932 1.841,-1.203 2.773,-0.605l19.017,12.195c0.015,0.01 0.031,0.02 0.046,0.031c4.046,2.349 6.693,6.391 6.693,10.909c0,7.116 -6.568,13.052 -14.829,13.052c-8.261,-0 -14.829,-5.936 -14.829,-13.052c-0,-0.29 0.01,-0.577 0.032,-0.862Zm6.755,-5.191c-1.718,1.59 -2.773,3.702 -2.773,6.053c-0,5.077 4.921,9.038 10.815,9.038c5.894,-0 10.815,-3.961 10.815,-9.038c0,-3.109 -1.844,-5.799 -4.627,-7.418c-0.091,-0.04 -0.179,-0.088 -0.265,-0.143l-0.061,-0.039c-1.698,-0.913 -3.715,-1.439 -5.862,-1.439c-2.982,0 -5.714,1.014 -7.687,2.673c-0.08,0.088 -0.168,0.169 -0.265,0.244l-0.09,0.069Z" style="fill:#fff;"/><path d="M25.811,19.235c2.625,0 4.65,1.956 4.65,4.218c-0,2.261 -2.025,4.217 -4.65,4.217c-2.625,-0 -4.65,-1.956 -4.65,-4.217c-0,-2.262 2.025,-4.218 4.65,-4.218Z" style="fill:#fff;"/></svg>