<?xml version="1.0" encoding="UTF-8" standalone="no"?><!DOCTYPE svg PUBLIC "-//W3C//DTD SVG 1.1//EN" "http://www.w3.org/Graphics/SVG/1.1/DTD/svg11.dtd"><svg width="100%" height="100%" viewBox="0 0 30 43" version="1.1" xmlns="http://www.w3.org/2000/svg" xmlns:xlink="http://www.w3.org/1999/xlink" xml:space="preserve" xmlns:serif="http://www.serif.com/" style="fill-rule:evenodd;clip-rule:evenodd;stroke-linejoin:round;stroke-miterlimit:2;"><path d="M16.925,34.285c0,4.674 -3.788,8.462 -8.462,8.462l-0.001,0c-4.673,0 -8.462,-3.788 -8.462,-8.462l0,-0.001c0,-4.673 3.789,-8.462 8.462,-8.462l8.463,0l0,8.463Zm-4.014,-4.449l-4.449,0c-2.456,0 -4.448,1.992 -4.448,4.448l0,0.001c0,2.457 1.992,4.448 4.448,4.448l0.001,0c2.457,0 4.448,-1.991 4.448,-4.448l0,-4.449Z" style="fill:#fff;"/><path d="M16.925,29.836l-8.463,0c-4.673,0 -8.462,-3.788 -8.462,-8.462l0,-0.001c0,-4.673 3.789,-8.462 8.462,-8.462l8.463,0l0,16.925Zm-4.014,-12.911l-4.449,0c-2.456,0 -4.448,1.992 -4.448,4.448l0,0.001c0,2.457 1.992,4.448 4.448,4.448l4.449,0l0,-8.897Z" style="fill:#fff;"/><path d="M16.925,16.925l-8.463,0c-4.673,0 -8.462,-3.788 -8.462,-8.462l0,-0.001c0,-4.673 3.789,-8.462 8.462,-8.462l8.463,-0l0,16.925Zm-4.014,-12.911l-4.449,0c-2.456,0 -4.448,1.992 -4.448,4.448l0,0.001c0,2.457 1.992,4.448 4.448,4.448l4.449,0l0,-8.897Z" style="fill:#fff;"/><path d="M29.836,8.462l0,0.001c0,4.674 -3.788,8.462 -8.462,8.462l-8.463,0l0,-16.925l8.463,0c4.674,0 8.462,3.789 8.462,8.462Zm-4.014,0c0,-2.456 -1.991,-4.448 -4.448,-4.448l-4.449,0c0,0 0,8.897 0,8.897l4.449,0c2.457,0 4.448,-1.991 4.448,-4.448l0,-0.001Z" style="fill:#fff;"/><path d="M29.836,21.373l0,0.001c0,4.674 -3.788,8.462 -8.462,8.462l-0.001,0c-4.673,0 -8.462,-3.788 -8.462,-8.462l0,-0.001c0,-4.673 3.789,-8.462 8.462,-8.462l0.001,0c4.674,0 8.462,3.789 8.462,8.462Zm-4.014,0c0,-2.456 -1.991,-4.448 -4.448,-4.448l-0.001,0c-2.456,0 -4.448,1.992 -4.448,4.448l0,0.001c0,2.457 1.992,4.448 4.448,4.448l0.001,0c2.457,0 4.448,-1.991 4.448,-4.448l0,-0.001Z" style="fill:#fff;"/></svg>