<?xml version="1.0" encoding="UTF-8" standalone="no"?><!DOCTYPE svg PUBLIC "-//W3C//DTD SVG 1.1//EN" "http://www.w3.org/Graphics/SVG/1.1/DTD/svg11.dtd"><svg width="100%" height="100%" viewBox="0 0 43 43" version="1.1" xmlns="http://www.w3.org/2000/svg" xmlns:xlink="http://www.w3.org/1999/xlink" xml:space="preserve" xmlns:serif="http://www.serif.com/" style="fill-rule:evenodd;clip-rule:evenodd;stroke-linejoin:round;stroke-miterlimit:2;"><rect x="12.508" y="13.632" width="2.946" height="15.587" style="fill:#fff;"/><path d="M26.983,13.239l2.892,0l0,15.979l-2.892,0l-0,-1.218c-0.565,0.537 -1.131,0.924 -1.699,1.16c-0.568,0.237 -1.184,0.355 -1.847,0.355c-1.489,0 -2.776,-0.577 -3.863,-1.732c-1.087,-1.155 -1.63,-2.591 -1.63,-4.308c0,-1.78 0.526,-3.239 1.577,-4.376c1.051,-1.137 2.329,-1.706 3.831,-1.706c0.692,0 1.341,0.131 1.948,0.392c0.607,0.262 1.167,0.654 1.683,1.176l-0,-5.722Zm-3.041,6.824c-0.894,0 -1.637,0.316 -2.229,0.949c-0.591,0.632 -0.887,1.443 -0.887,2.432c0,0.996 0.301,1.815 0.903,2.458c0.602,0.643 1.343,0.964 2.223,0.964c0.908,0 1.662,-0.316 2.26,-0.948c0.599,-0.632 0.898,-1.461 0.898,-2.485c-0,-1.003 -0.299,-1.816 -0.898,-2.437c-0.598,-0.622 -1.355,-0.933 -2.27,-0.933Z" style="fill:#fff;"/><path d="M42.755,42.755l-42.755,-0l-0,-42.755l42.755,0l-0,42.755Zm-4.014,-38.741l-34.727,0c0,0 0,34.727 0,34.727l34.727,-0l-0,-34.727Z" style="fill:#fff;"/></svg>