<?xml version="1.0" encoding="UTF-8" standalone="no"?><!DOCTYPE svg PUBLIC "-//W3C//DTD SVG 1.1//EN" "http://www.w3.org/Graphics/SVG/1.1/DTD/svg11.dtd"><svg width="100%" height="100%" viewBox="0 0 43 43" version="1.1" xmlns="http://www.w3.org/2000/svg" xmlns:xlink="http://www.w3.org/1999/xlink" xml:space="preserve" xmlns:serif="http://www.serif.com/" style="fill-rule:evenodd;clip-rule:evenodd;stroke-linejoin:round;stroke-miterlimit:2;"><path d="M42.755,42.755l-42.755,-0l0,-42.755l42.755,0l-0,42.755Zm-4.014,-38.741l-34.727,0c0,0 0,34.727 0,34.727l34.727,-0l-0,-34.727Z" style="fill:#fff;"/><g><path d="M12.699,13.584l3.147,-0c1.703,-0 2.93,0.157 3.682,0.471c0.753,0.315 1.346,0.823 1.78,1.526c0.435,0.703 0.652,1.545 0.652,2.527c0,1.088 -0.284,1.992 -0.853,2.713c-0.569,0.721 -1.34,1.222 -2.315,1.505c-0.572,0.162 -1.614,0.243 -3.126,0.243l-0,6.602l-2.967,-0l0,-15.587Zm2.967,6.093l0.943,-0c0.742,-0 1.257,-0.054 1.547,-0.16c0.29,-0.106 0.518,-0.282 0.684,-0.526c0.166,-0.245 0.249,-0.54 0.249,-0.888c-0,-0.602 -0.234,-1.042 -0.7,-1.318c-0.339,-0.206 -0.968,-0.308 -1.886,-0.308l-0.837,-0l-0,3.2Z" style="fill:#fff;fill-rule:nonzero;"/><path d="M23.867,17.642l2.48,0l-0,1.452c0.268,-0.572 0.625,-1.007 1.07,-1.303c0.445,-0.297 0.933,-0.446 1.462,-0.446c0.375,0 0.767,0.099 1.177,0.297l-0.901,2.49c-0.339,-0.169 -0.618,-0.254 -0.837,-0.254c-0.445,-0 -0.821,0.275 -1.129,0.826c-0.307,0.551 -0.461,1.632 -0.461,3.243l0.011,0.561l-0,4.663l-2.872,-0l0,-11.529Z" style="fill:#fff;fill-rule:nonzero;"/></g></svg>