<?xml version="1.0" encoding="UTF-8" standalone="no"?><!DOCTYPE svg PUBLIC "-//W3C//DTD SVG 1.1//EN" "http://www.w3.org/Graphics/SVG/1.1/DTD/svg11.dtd"><svg width="100%" height="100%" viewBox="0 0 43 43" version="1.1" xmlns="http://www.w3.org/2000/svg" xmlns:xlink="http://www.w3.org/1999/xlink" xml:space="preserve" xmlns:serif="http://www.serif.com/" style="fill-rule:evenodd;clip-rule:evenodd;stroke-linejoin:round;stroke-miterlimit:2;"><path d="M42.755,42.755l-42.755,-0l-0,-42.755l42.755,0l-0,42.755Zm-4.014,-38.741l-34.727,0c0,0 0,34.727 0,34.727l34.727,-0l-0,-34.727Z" style="fill:#fff;"/><g><path d="M11.82,13.436l3.147,-0c1.702,-0 2.929,0.157 3.682,0.471c0.752,0.314 1.346,0.823 1.78,1.526c0.434,0.703 0.652,1.545 0.652,2.527c-0,1.088 -0.285,1.992 -0.853,2.713c-0.569,0.72 -1.341,1.222 -2.316,1.504c-0.572,0.163 -1.614,0.244 -3.125,0.244l-0,6.601l-2.967,0l-0,-15.586Zm2.967,6.092l0.943,0c0.741,0 1.257,-0.053 1.547,-0.159c0.289,-0.106 0.517,-0.282 0.683,-0.526c0.166,-0.245 0.249,-0.541 0.249,-0.888c0,-0.603 -0.233,-1.042 -0.699,-1.318c-0.339,-0.206 -0.968,-0.309 -1.886,-0.309l-0.837,0l-0,3.2Z" style="fill:#fff;fill-rule:nonzero;"/><path d="M30.723,19.104l-1.791,1.791c-0.727,-0.72 -1.388,-1.081 -1.981,-1.081c-0.325,0 -0.579,0.069 -0.763,0.207c-0.184,0.138 -0.276,0.309 -0.276,0.514c0,0.155 0.059,0.298 0.175,0.429c0.117,0.131 0.405,0.309 0.864,0.535l1.059,0.53c1.117,0.551 1.883,1.113 2.3,1.685c0.417,0.572 0.625,1.243 0.625,2.013c-0,1.024 -0.376,1.879 -1.128,2.564c-0.753,0.685 -1.761,1.028 -3.026,1.028c-1.681,0 -3.023,-0.657 -4.026,-1.971l1.78,-1.939c0.339,0.396 0.736,0.715 1.192,0.959c0.456,0.244 0.86,0.366 1.213,0.366c0.382,-0 0.689,-0.092 0.922,-0.276c0.233,-0.184 0.35,-0.395 0.35,-0.636c-0,-0.445 -0.421,-0.879 -1.261,-1.303l-0.975,-0.487c-1.865,-0.94 -2.797,-2.116 -2.797,-3.529c-0,-0.911 0.351,-1.69 1.054,-2.336c0.703,-0.647 1.602,-0.97 2.697,-0.97c0.748,0 1.453,0.164 2.114,0.493c0.66,0.328 1.22,0.8 1.679,1.414Z" style="fill:#fff;fill-rule:nonzero;"/></g></svg>