<?xml version="1.0" encoding="UTF-8" standalone="no"?><!DOCTYPE svg PUBLIC "-//W3C//DTD SVG 1.1//EN" "http://www.w3.org/Graphics/SVG/1.1/DTD/svg11.dtd"><svg width="100%" height="100%" viewBox="0 0 42 42" version="1.1" xmlns="http://www.w3.org/2000/svg" xmlns:xlink="http://www.w3.org/1999/xlink" xml:space="preserve" xmlns:serif="http://www.serif.com/" style="fill-rule:evenodd;clip-rule:evenodd;stroke-linejoin:round;stroke-miterlimit:2;"><path d="M20.577,-0c11.356,-0 20.576,9.22 20.576,20.577c0,11.356 -9.22,20.576 -20.576,20.576c-11.357,0 -20.577,-9.22 -20.577,-20.576c0,-11.357 9.22,-20.577 20.577,-20.577Zm-15.354,14.358c-0.779,1.92 -1.209,4.02 -1.209,6.219c0,5.716 2.903,10.761 7.314,13.738l-6.105,-19.957Zm10.946,22.187c1.404,0.387 2.882,0.594 4.408,0.594c1.519,0 2.992,-0.205 4.39,-0.589l-3.822,-15.43l-4.935,15.31c-0.012,0.039 -0.026,0.077 -0.041,0.115Zm14.507,-2.844c3.93,-3.03 6.463,-7.784 6.463,-13.124c0,-1.447 -0.186,-2.85 -0.535,-4.188c-0.289,1.79 -1.022,3.625 -1.022,3.627l-4.906,13.685Zm3.289,-22.871c-3.013,-4.13 -7.889,-6.816 -13.388,-6.816c-5.442,0 -10.275,2.63 -13.295,6.688l4.128,0c1.108,0 2.007,0.899 2.007,2.007c0,1.108 -0.899,2.007 -2.007,2.007l-0.979,0.002c-0.306,0 -0.594,0.148 -0.773,0.396c-0.179,0.249 -0.227,0.569 -0.13,0.859l4.609,13.804l4.524,-14.036c0.077,-0.239 0.036,-0.5 -0.112,-0.702c-0.148,-0.203 -0.384,-0.323 -0.634,-0.323c-1.108,0 -2.007,-0.899 -2.007,-2.007c-0,-1.108 0.899,-2.007 2.007,-2.007l6.924,0c1.108,0 2.007,0.899 2.007,2.007c0,1.108 -0.899,2.007 -2.007,2.007c-0.276,0 -0.536,0.127 -0.706,0.344c-0.169,0.217 -0.23,0.5 -0.164,0.767l3.617,14.599l4.591,-11.492c-0,0 1.326,-3.576 -0.239,-4.061c-0.291,-0.09 -0.675,0.582 -1.731,0.523c-1.106,-0.063 -1.97,-1.166 -2.045,-2.271c-0.075,-1.105 1.414,-2.642 2.519,-2.717c1.474,-0.1 2.49,-0.002 3.284,0.422Z" style="fill:#fff;"/></svg>