<?xml version="1.0" encoding="UTF-8" standalone="no"?><!DOCTYPE svg PUBLIC "-//W3C//DTD SVG 1.1//EN" "http://www.w3.org/Graphics/SVG/1.1/DTD/svg11.dtd"><svg width="100%" height="100%" viewBox="0 0 62 62" version="1.1" xmlns="http://www.w3.org/2000/svg" xmlns:xlink="http://www.w3.org/1999/xlink" xml:space="preserve" xmlns:serif="http://www.serif.com/" style="fill-rule:evenodd;clip-rule:evenodd;stroke-linejoin:round;stroke-miterlimit:2;"><path d="M30.935,5.751l5.652,15.177c0.37,0.996 0.952,1.901 1.703,2.652c0.752,0.752 1.656,1.333 2.653,1.704l15.176,5.651l-15.176,5.652c-0.997,0.37 -1.901,0.952 -2.653,1.703c-0.751,0.752 -1.333,1.656 -1.703,2.653l-5.652,15.176l-5.651,-15.176c-0.371,-0.997 -0.952,-1.901 -1.704,-2.653c-0.751,-0.751 -1.656,-1.333 -2.652,-1.703l-15.177,-5.652l15.177,-5.651c0.996,-0.371 1.901,-0.952 2.652,-1.704c0.752,-0.751 1.333,-1.656 1.704,-2.652l5.651,-15.177Z" style="fill:#1f1f1f;"/><path d="M38.467,20.227c0.271,0.727 0.694,1.386 1.242,1.934c0.548,0.548 1.208,0.972 1.934,1.242l20.228,7.532l-20.228,7.532c-0.726,0.271 -1.386,0.694 -1.934,1.242c-0.548,0.548 -0.971,1.208 -1.242,1.934l-7.532,20.228l-7.532,-20.228c-0.27,-0.726 -0.694,-1.386 -1.242,-1.934c-0.548,-0.548 -1.207,-0.971 -1.934,-1.242l-20.227,-7.532l20.227,-7.532c0.727,-0.27 1.386,-0.694 1.934,-1.242c0.548,-0.548 0.972,-1.207 1.242,-1.934l7.532,-20.227l7.532,20.227Zm-7.532,-8.724l-3.77,10.125c-0.472,1.266 -1.21,2.416 -2.165,3.372c-0.956,0.955 -2.106,1.693 -3.372,2.165c0,-0 -10.125,3.77 -10.125,3.77l10.125,3.771c1.266,0.471 2.416,1.21 3.372,2.165c0.955,0.955 1.693,2.105 2.165,3.371c-0,0 3.77,10.126 3.77,10.126l3.771,-10.126c0.471,-1.266 1.21,-2.416 2.165,-3.371c0.955,-0.955 2.105,-1.694 3.371,-2.165c0,-0 10.126,-3.771 10.126,-3.771l-10.126,-3.77c-1.266,-0.472 -2.416,-1.21 -3.371,-2.165c-0.955,-0.956 -1.694,-2.106 -2.165,-3.372l-3.771,-10.125Z" style="fill:#fff;"/></svg>