<?xml version="1.0" encoding="UTF-8" standalone="no"?><!DOCTYPE svg PUBLIC "-//W3C//DTD SVG 1.1//EN" "http://www.w3.org/Graphics/SVG/1.1/DTD/svg11.dtd"><svg width="100%" height="100%" viewBox="0 0 42 56" version="1.1" xmlns="http://www.w3.org/2000/svg" xmlns:xlink="http://www.w3.org/1999/xlink" xml:space="preserve" xmlns:serif="http://www.serif.com/" style="fill-rule:evenodd;clip-rule:evenodd;stroke-linejoin:round;stroke-miterlimit:2;"><path d="M16.349,16.944c0,-0 8.386,-0.12 14.178,-0.202c3.057,-0.044 5.648,2.241 5.988,5.279c0.912,8.164 2.546,22.782 2.546,22.782c-11.234,-0.979 -16.925,0.669 -24.072,7.186c-0,0 -5.517,-8.72 -9.493,-15.006c-2.37,-3.746 -2.004,-8.603 0.901,-11.953c0.253,-0.291 0.405,-0.467 0.405,-0.467c-0,0 -2.728,-9.137 -4.558,-15.27c-0.43,-1.439 -0.27,-2.99 0.444,-4.312c0.714,-1.322 1.924,-2.306 3.363,-2.735c-0,-0 0,-0 0,-0c2.997,-0.895 6.153,0.809 7.048,3.807c1.417,4.748 3.25,10.891 3.25,10.891Z" style="fill:#1f1f1f;"/><path d="M4.567,24.092l-4.246,-14.225c-0.582,-1.949 -0.366,-4.05 0.601,-5.84c0.967,-1.79 2.605,-3.123 4.555,-3.704c4.059,-1.212 8.333,1.096 9.545,5.156l2.817,9.436l12.66,-0.18c4.09,-0.058 7.556,2.998 8.01,7.063l2.819,25.218l-2.441,-0.213c-10.514,-0.916 -15.857,0.57 -22.546,6.669l-1.769,1.613l-10.772,-17.029c-2.756,-4.356 -2.429,-9.964 0.767,-13.964Zm6.608,-17.465c-0.577,-1.935 -2.615,-3.036 -4.55,-2.458c-0.929,0.277 -1.71,0.913 -2.171,1.766c-0.461,0.853 -0.565,1.855 -0.287,2.784l4.873,16.326l-1.127,1.3c-2.325,2.68 -2.617,6.567 -0.721,9.565c0,0 8.243,13.03 8.243,13.03c6.29,-5.209 11.881,-6.848 21.363,-6.313l-2.278,-20.383c-0.225,-2.012 -1.94,-3.524 -3.964,-3.495l-15.696,0.223l-3.685,-12.345Z" style="fill:#fff;"/></svg>